<svg xmlns="http://www.w3.org/2000/svg" viewBox="0 0 480 493">
  <path fill="#002B5B" d="M331 491c128-19 174-212 132-346C422 11 293-68 67 127c-85 79-57 174 11 247s176 127 252 117h1z"/>
  <path fill="#004171" d="M318 492c-34 1-75-9-117-28-45-22-89-54-123-90-36-39-58-81-63-121l-1-17c0 60 40 112 65 138 71 76 179 126 251 117l1-1v1-1c41-6 77-30 103-72 45-71 57-183 29-273-21-68-62-114-115-129-35-10-76-7-120 9-49 18-103 52-161 102a162 162 0 000-1c57-49 112-83 161-101 44-17 85-20 120-9 28 8 52 24 73 47 18 22 33 50 43 82 27 90 15 203-30 274-26 41-61 66-103 72h-1l-12 1z"/>
  <path fill="#006B9B" d="M325 487c128-19 174-212 132-346C416 7 287-72 61 123c-85 79-57 174 11 247s176 127 252 117h1z"/>
  <path fill="#0781B1" d="M312 488c-34 1-75-9-117-28-45-22-89-54-123-90-36-39-58-81-63-121l-1-17c0 60 40 112 65 138 71 76 179 126 251 117l1-1v1-1c41-6 77-30 103-72 45-71 57-183 29-273-21-68-62-114-115-129-35-10-76-7-120 9-49 18-103 52-161 102a162 162 0 000-1c57-49 112-83 161-101 44-17 85-20 120-9 28 8 52 24 73 47 18 22 33 50 43 82 27 90 15 203-30 274-26 41-61 66-103 72h-1l-12 1z"/>
  <path fill="#006B9B" d="M325 487c128-19 174-212 132-346C416 7 287-72 61 123c-85 79-57 174 11 247s176 127 252 117h1z"/>
  <path fill="#0781B1" d="M312 488c-34 1-75-9-117-28-45-22-89-54-123-90-36-39-58-81-63-121l-1-17c0 60 40 112 65 138 71 76 179 126 251 117l1-1v1-1c41-6 77-30 103-72 45-71 57-183 29-273-21-68-62-114-115-129-35-10-76-7-120 9-49 18-103 52-161 102a162 162 0 000-1c57-49 112-83 161-101 44-17 85-20 120-9 28 8 52 24 73 47 18 22 33 50 43 82 27 90 15 203-30 274-26 41-61 66-103 72h-1l-12 1z"/>
  <path fill="#03ABDB" d="M319 483c128-19 174-212 132-346C410 3 281-76 55 119c-85 79-57 174 11 247s176 127 252 117h1z"/>
  <path fill="#47C1F1" d="M306 484c-34 1-75-9-117-28-45-22-89-54-123-90-36-39-58-81-63-121l-1-17c0 60 40 112 65 138 71 76 179 126 251 117l1-1v1-1c41-6 77-30 103-72 45-71 57-183 29-273C430 69 389 23 336 8c-35-10-76-7-120 9-49 18-103 52-161 102a162 162 0 000-1c57-49 112-83 161-101 44-17 85-20 120-9 28 8 52 24 73 47 18 22 33 50 43 82 27 90 15 203-30 274-26 41-61 66-103 72h-1l-12 1z"/>
  <path d="M302 436c-23 19-43 30-63 31-29 3-63 1-102-5-13-2-20-7-23-14-1-6 7-11 26-16 93-24 150-57 173-100l4-9c3-7-3-15-11-13l-38 5c-45 4-77-5-95-27a93 93 0 01-19-68c3-49 16-86 40-112 15-16 33-25 54-26 31-3 57 14 78 49 22 36 34 76 37 119 2 21 2 39 1 53-6 57-26 102-62 133zm-57-284c-19 4-31 22-35 57-4 27 13 38 50 34l46-7c-4-26-11-47-20-62-11-17-24-24-41-22z"/>
  <path fill="#FFF" d="M299 429c-23 19-43 30-63 31-29 3-63 1-102-5-13-2-20-7-23-14-1-6 7-11 26-16 93-24 150-57 173-100l4-9c3-7-3-15-11-13l-38 5c-45 4-77-5-95-27a93 93 0 01-19-68c3-49 16-86 40-112 15-16 33-25 54-26 31-3 57 14 78 49 22 36 34 76 37 119 2 21 2 39 1 53-6 57-26 102-62 133zm-57-284c-19 4-31 22-35 57-4 27 13 38 50 34l46-7c-4-26-11-47-20-62-11-17-24-24-41-22z"/> 
</svg>